# xmcd
#
# Track frame offsets:
#	150
#	19693
#	33166
#	52194
#	69770
#	89107
#	112110
#	130828
#
# Disc length: 2060 seconds
#
# Revision: 1
# Processed by: cddbd v1.5.2PL0 Copyright (c) Steve Scherf et al.
# Submitted via: audiograbber 1.83.01
#
DISCID=6a080a08
DTITLE=Loni Rose - Beautiful Mess
DYEAR=2009
DGENRE=Country
TTITLE0=Muddy Water
TTITLE1=Drink You Down
TTITLE2=You're The Only One
TTITLE3=210 Miles To Empty
TTITLE4=Does It Hurt You
TTITLE5=Looking For Love
TTITLE6=After Midnight
TTITLE7=Rose
EXTD=
EXTT0=
EXTT1=
EXTT2=
EXTT3=
EXTT4=
EXTT5=
EXTT6=
EXTT7=
PLAYORDER=
